<?xml version="1.0" encoding="UTF-8"?>
<svg width="38px" height="40px" viewBox="0 0 38 40" version="1.1" xmlns="http://www.w3.org/2000/svg" xmlns:xlink="http://www.w3.org/1999/xlink">
    <!-- Generator: Sketch 50.2 (55047) - http://www.bohemiancoding.com/sketch -->
    <title>location_city</title>
    <desc>Created with Sketch.</desc>
    <defs></defs>
    <g id="Symbols" stroke="none" stroke-width="1" fill="none" fill-rule="evenodd">
        <g id="county" transform="translate(-16.000000, -16.000000)" fill="#0078FA" fill-rule="nonzero">
            <g id="row">
                <g transform="translate(16.000000, 13.000000)">
                    <g id="location_city" transform="translate(0.000000, 3.000000)">
                        <path d="M25.3333333,18.9473684 L25.3333333,6.31578947 L19,0 L12.6666667,6.31578947 L12.6666667,10.5263158 L0,10.5263158 L0,40 L38,40 L38,18.9473684 L25.3333333,18.9473684 Z M8.44444444,35.7894737 L4.22222222,35.7894737 L4.22222222,31.5789474 L8.44444444,31.5789474 L8.44444444,35.7894737 Z M8.44444444,27.3684211 L4.22222222,27.3684211 L4.22222222,23.1578947 L8.44444444,23.1578947 L8.44444444,27.3684211 Z M8.44444444,18.9473684 L4.22222222,18.9473684 L4.22222222,14.7368421 L8.44444444,14.7368421 L8.44444444,18.9473684 Z M21.1111111,35.7894737 L16.8888889,35.7894737 L16.8888889,31.5789474 L21.1111111,31.5789474 L21.1111111,35.7894737 Z M21.1111111,27.3684211 L16.8888889,27.3684211 L16.8888889,23.1578947 L21.1111111,23.1578947 L21.1111111,27.3684211 Z M21.1111111,18.9473684 L16.8888889,18.9473684 L16.8888889,14.7368421 L21.1111111,14.7368421 L21.1111111,18.9473684 Z M21.1111111,10.5263158 L16.8888889,10.5263158 L16.8888889,6.31578947 L21.1111111,6.31578947 L21.1111111,10.5263158 Z M33.7777778,35.7894737 L29.5555556,35.7894737 L29.5555556,31.5789474 L33.7777778,31.5789474 L33.7777778,35.7894737 Z M33.7777778,27.3684211 L29.5555556,27.3684211 L29.5555556,23.1578947 L33.7777778,23.1578947 L33.7777778,27.3684211 Z" id="Shape"></path>
                    </g>
                </g>
            </g>
        </g>
    </g>
</svg>